<svg xmlns="http://www.w3.org/2000/svg" viewBox="0 0 815.17 505.96"><defs><style>.cls-1{isolation:isolate;}.cls-2{opacity:0.5;mix-blend-mode:overlay;}.cls-3{fill:#36ccb1;fill-rule:evenodd;}</style></defs><g class="cls-1"><g id="Layer_2" data-name="Layer 2"><g id="OBJECTS"><g class="cls-2"><path class="cls-3" d="M643.67,86.63C565.76,81.19,451.18,165,390.36,174.7,248.15,197.36,237,63,148.8,29.07,90.26-11.26,43.69,1.43,36.38,3.57l-.16,69.54C12.9,145.9-14.84,231.48,9.35,315c31,105.12,121.05,153.26,192.43,174.49,101.1,29.21,206.43,17.85,301.83-19.91a471.44,471.44,0,0,0,135.24-81.6c31-27,58.88-58.69,80.66-98.24,15.91-28.31,97.49-51.35,95.63-91C814,172.75,735.12,93,643.67,86.63Z"/></g></g></g></g></svg>