<svg xmlns="http://www.w3.org/2000/svg" viewBox="0 0 703.02 506.17"><defs><style>.cls-1{isolation:isolate;}.cls-2{opacity:0.5;mix-blend-mode:overlay;}.cls-3{fill:#36ccb1;fill-rule:evenodd;}</style></defs><g class="cls-1"><g id="Layer_2" data-name="Layer 2"><g id="OBJECTS"><g class="cls-2"><path class="cls-3" d="M586.54,218c-63.85-23.6-180.21,18.49-233.47,11.72C228.55,213.92,252.14,98.76,186.6,48.83,147.49.77,105.43,0,98.78,0L81.64,58.13C44.32,113.33.18,178.14,0,253.91c.19,95.51,63.79,157.82,118.31,193,77.44,49.17,168.34,65.43,257.39,57.18a411,411,0,0,0,133.1-35.19c32.55-15,63.62-34.7,91.52-62.47,20.23-19.79,94.12-19.1,102.28-52.78C708,331.74,661.49,245.74,586.54,218Z"/></g></g></g></g></svg>