<svg xmlns="http://www.w3.org/2000/svg" viewBox="0 0 816.16 511.4"><defs><style>.cls-1{fill:#36ccb1;}</style></defs><g id="Layer_2" data-name="Layer 2"><g id="OBJECTS"><path class="cls-1" d="M644.65,92.23c-33.15-2.16-66.09,9.32-96.31,21.68-36.73,15-71.73,33.85-108.08,49.71-14.4,6.29-29.2,12.37-44.61,15.69-20.91,4.5-43.48,5.51-64.59,2.06-29.16-4.77-53.56-20-74-40.89-20.79-21.28-37.88-45.83-58.64-67.16-27-27.76-60.45-48.06-96.21-62.69C86.38,4.15,65-4,47.71,2.62,44,4,41.28,6.46,38,8.42c-1.53.9-1.57.66-1.58,2.57l0,13.55L36.25,65c0,4.16.2,8.38,0,12.52a22.74,22.74,0,0,1-1.46,5.74Q32,91.89,29.27,100.52C13.56,150.47-.53,202,0,254.81.5,302.44,14.36,349.18,41.8,388.28c21.77,31,51.14,56,83.94,74.72,32.62,18.65,68.45,31.56,105.16,39.34,46,9.75,93.55,11.58,140.25,6.45A516.31,516.31,0,0,0,522,467.93a464.08,464.08,0,0,0,126.7-82.26,372.09,372.09,0,0,0,48-53.12,337.87,337.87,0,0,0,20.67-31.62c3.61-6.26,7-11.6,12.39-16.46,23.25-20.86,55.11-31,75.94-54.83,7.24-8.27,13-19.66,9.37-30.79C811.5,188,803.52,178.4,796,170c-24.89-27.84-57.54-49.88-92.13-63.73a199.15,199.15,0,0,0-59.26-14.07c-.3,0-.73,0-1,0,41.35,3,80.76,20.4,114.06,44.58a234.65,234.65,0,0,1,37.57,33.52c7.33,8.24,15.1,17.66,18.65,28.3,3.61,10.79-1.61,21.9-8.54,30.12-10,11.84-23.6,20.41-36.58,28.56s-26.48,15.61-38.16,25.45a49.47,49.47,0,0,0-11.53,13.16,370.35,370.35,0,0,1-19.86,31.59c-28,39.51-64.38,72.57-104.39,99.6-41.45,28-87.22,48.87-135.06,63.26-54.23,16.29-111.25,24-167.84,20.24-43.82-2.89-87.31-12.35-127.88-29.29-32.7-13.65-63.61-32.19-89.53-56.5A233.09,233.09,0,0,1,11.26,323.61C-4.36,273-.16,219.05,11.43,168.09,17,143.45,24.33,119.24,32,95.17c.85-2.65,1.69-5.3,2.54-8s2.32-5.72,2.72-8.51a16.2,16.2,0,0,0,0-2.09l0-13.6.08-39.82c0-4.16-.27-8.45,0-12.61.13-1.69.25-1.37,1.7-2.25,3.26-2,6-4.34,9.64-5.72C56.82-.47,65.81.33,74.14,2c16,3.21,31.19,9.91,45.71,17,18.51,9.12,36.79,19.21,53.05,32,24,18.92,43,42.8,62.52,66.16C253,138.24,271.88,159,297,171.07c27.94,13.45,59.83,14.21,90,9.9,14.94-2.14,29.13-6.95,43.07-12.61,16.89-6.86,33.35-14.76,49.78-22.63,35.59-17,71.32-35,109.37-45.95,17.61-5.07,36.1-8.75,54.5-7.54C644,92.26,644.41,92.22,644.65,92.23Z" transform="translate(0 -0.18)"/></g></g></svg>