<svg xmlns="http://www.w3.org/2000/svg" viewBox="0 0 683.9 335.36"><defs><style>.cls-1{fill:#36ccb1;}</style></defs><g id="Layer_2" data-name="Layer 2"><g id="OBJECTS"><path class="cls-1" d="M29.13,214.9c8.69,4.73,18.8,6.45,28.54,7.35a224.7,224.7,0,0,0,29,.53c24.64-.91,49.12-4.37,73.48-8,32.32-4.75,64.5-10.47,96.9-14.69,37.19-4.85,75.74-8.09,113-2,29.71,4.82,58.22,16.1,82.33,34.26,23,17.35,41.23,39.22,61.36,59.62,10.09,10.22,20.81,20,32.9,27.77,12.4,8,25.81,15.13,40.84,16,26.4,1.47,48.89-13.93,64.19-34.33,34.26-45.68,40.39-110.71,22.34-164a175.39,175.39,0,0,0-42.47-68.14C612.75,50.64,590,36.36,565.84,25.92,513.49,3.35,454.42-1.79,398,1.21a568.36,568.36,0,0,0-101.33,15,446.62,446.62,0,0,0-90,31.32c-27.51,13.2-52.85,29.92-75.05,50.89-17.88,16.9-42.41,22.41-65.55,28.15C43.56,132.15,19.42,138.67,4,157.4c-2.3,2.8-3,6.69-3.55,10.19a39.14,39.14,0,0,0,3.3,22.62c5.2,11,15,18.85,25.37,24.69.25.15.75-.16,1,0C12.89,205.19-1.56,189,1.39,168c.44-3.16,1.08-6.84,2.79-9.59,2.91-4.69,8.1-8.8,12.5-12A81.52,81.52,0,0,1,31,138c21.41-9.86,45.26-12.48,67.44-20.12,10.84-3.73,21.36-8.71,30.27-16,5.31-4.37,10.09-9.37,15.34-13.83q8.64-7.35,17.92-13.91C212.94,38,274.61,18.87,335.58,8.39c37.95-6.53,76.6-9.33,115.07-7.12C479.4,2.92,508.2,7,535.81,15.38,585.13,30.3,631.42,59.21,658,104.48c28.16,48.05,32.65,109.1,12.38,160.93-9.74,24.94-25.93,50.73-50.52,63.2-14.42,7.3-31.1,9.15-46.56,4.18-13.8-4.43-26.83-13.08-38.07-22.1-21.79-17.5-39-39.79-59.07-59.09-21-20.18-45.4-36.38-73.12-45.7-27.09-9.11-55.27-11.25-83.67-10.78-31.46.52-62.69,4.62-93.74,9.44-28.39,4.4-56.75,9.09-85.22,13-27.63,3.77-56.26,7.53-84.11,4.44-9-1-18.14-2.76-26.13-7.1C29.87,214.74,29.38,215,29.13,214.9Z" transform="translate(-0.01 -0.43)"/></g></g></svg>