<svg xmlns="http://www.w3.org/2000/svg" viewBox="0 0 682.8 335.27"><defs><style>.cls-1{isolation:isolate;}.cls-2{opacity:0.5;mix-blend-mode:overlay;}.cls-3{fill:#36ccb1;fill-rule:evenodd;}</style></defs><g class="cls-1"><g id="Layer_2" data-name="Layer 2"><g id="OBJECTS"><g class="cls-2"><path class="cls-3" d="M29.13,214.39C58.65,230.75,132,218.2,172,212.46c52.19-7.73,103.19-18.22,155.58-17.87,47.07-.64,92.77,10.74,130.61,41.82,34.1,26.17,58,66.52,96.39,87.56,15.57,9.63,32.12,13.95,49.84,9.6,22.45-4.75,39.57-21.9,51.37-40,33.23-51.83,35.33-122.93,8.89-176.87C631.73,47.58,558.43,13.77,485.75,4.18,411.09-6.18,335.28,3.54,264.2,24.28c-48.64,16-94.9,37.51-131.89,73C96.69,132.17,33.4,119,2.91,158.26,2.91,158.26-12.89,191.12,29.13,214.39Z"/></g></g></g></g></svg>