<svg xmlns="http://www.w3.org/2000/svg" viewBox="0 0 616.68 421.8"><defs><style>.cls-1{isolation:isolate;}.cls-2{opacity:0.5;mix-blend-mode:overlay;}.cls-3{fill:#36ccb1;fill-rule:evenodd;}</style></defs><g class="cls-1"><g id="Layer_2" data-name="Layer 2"><g id="OBJECTS"><g class="cls-2"><path class="cls-3" d="M9,101.14c39,15,78,27,117,37.5,51,13.5,102,24,150,45,43.49,18,81,46.5,103.49,90,21,37.5,27,84,54,118.5,10.5,15,24,25.5,42,28.5,22.5,4.5,45-4.5,63-16.5,51-34.5,81-99,78-159-3-76.49-57-136.49-120-174-64.5-39-138-60-211.49-69-51-4.5-102-3-150,15C88.5,35.15,43.5,60.64,0,84.64Z"/></g></g></g></g></svg>